<svg id="Layer_1" enable-background="new 0 0 512 512" height="512" viewBox="0 0 512 512" width="512" xmlns="http://www.w3.org/2000/svg"><g><g id="XMLID_37_"><g id="XMLID_55_"><g id="XMLID_56_"><g id="XMLID_57_"><g id="XMLID_58_"><g id="XMLID_59_"><g id="XMLID_60_"><g id="XMLID_75_"><g id="XMLID_76_"><g id="XMLID_77_"><g id="XMLID_78_"><g id="XMLID_79_"><g id="XMLID_80_"><g id="XMLID_81_"><path d="m512 256c0 141.38-114.62 256-256 256s-256-114.62-256-256 114.62-256 256-256c35.06 0 68.48 7.05 98.91 19.82 13.754 5.765 17.203 24.402 29.616 32.377 13.145 8.446 35.163 6.357 46.514 16.993 49.83 46.71 80.96 113.13 80.96 186.81z" fill="#14c4a2"/></g></g></g></g></g></g></g></g></g></g></g></g></g></g><path d="m249.377 88.04-98.837 66.31 78.482 78.504c-7.102 7.976-23.307 32.185-23.307 32.185l35.391 36.069-39.594-1.701-89.935-90.381 30.244 85.313-13.188 159.286 44.741 44.741c25.923 8.835 53.713 13.634 82.626 13.634 141.38 0 256-114.62 256-256 0-73.321-30.835-139.446-80.241-186.119-.615-.03-1.043-.123-1.242-.293l.524-.397z" fill="#02a082"/><g><g><path d="m296.412 194.321c-7.685-2.635-15.985-2.457-23.373.502-6.731 2.695-12.548 7.59-17.039 14.289-4.491-6.699-10.308-11.594-17.039-14.289-7.387-2.959-15.688-3.136-23.373-.502-14.614 5.011-28.103 21.048-23.187 44.417 1.854 8.811 6.333 17.66 13.314 26.301 5.501 6.809 12.567 13.515 21.003 19.931 14.291 10.869 27.43 17.091 27.982 17.35l1.3.61 1.299-.61c.552-.26 13.692-6.481 27.983-17.35 8.436-6.416 15.502-13.122 21.003-19.931 6.981-8.641 11.46-17.49 13.314-26.301 4.916-23.369-8.573-39.406-23.187-44.417z" fill="#ff735c"/><path d="m319.599 238.737c-1.855 8.811-6.333 17.659-13.314 26.298-5.501 6.81-12.565 13.518-21.001 19.933-14.293 10.869-27.429 17.094-27.982 17.348l-1.302.617v-93.823c4.491-6.695 10.31-11.593 17.037-14.286 7.388-2.96 15.69-3.138 23.376-.502 14.61 5.012 28.102 21.045 23.186 44.415z" fill="#fc435f"/></g><path d="m429.649 231.446-29.226-22.309-71.084 82.834h-146.592l-71.17-82.945-29.226 22.309 46.282 60.636v161.653h254.827v-161.653h-.001z" fill="#7c605d"/><path d="m429.65 231.45-46.19 60.52v161.65h-127.46v-161.65h73.34l71.08-82.83z" fill="#664744"/><g><path d="m353.028 91.424-.299 37.175c-4.698 2.969-10.023 4.803-15.553 5.359l-80.667 8.102c-11.193 1.124-21.178-7.038-22.302-18.231-1.124-11.193 7.038-21.178 18.231-22.302z" fill="#fcc78d"/><path d="m353.03 91.42-.3 37.18c-2.35 1.48-4.85 2.68-7.46 3.58s-5.33 1.5-8.09 1.78l-80.67 8.1c-.17.02-.34.03-.51.04v-40.93z" fill="#f4af71"/><path d="m431.04 69.19-78.31 59.41c-3.48-16.1-17.38-27.51-33.4-28.23-1.81-.08-3.64-.02-5.49.18l-72.05 7.82-51.61 47.58c-11.39 10.5-29.13 9.78-39.64-1.6-5.28-5.73-7.72-13.07-7.4-20.28.32-7.14 3.34-14.15 9.01-19.38l43.99-40.54c15.05-13.89 34.21-22.5 54.58-24.54l83.13-8.35 21.06-21.44c28.32 11.87 54.06 28.69 76.13 49.37z" fill="#ffdba9"/><g><path d="m431.04 69.19-78.31 59.41c-3.48-16.1-17.38-27.51-33.4-28.23-1.81-.08-3.64-.02-5.49.18l-57.84 6.28v-57.75l77.85-7.82 21.06-21.44c28.32 11.87 54.06 28.69 76.13 49.37z" fill="#fcc78d"/></g></g><path d="m183.21 336.116h145.579v74.705h-145.579z" fill="#fcfcfc"/><path d="m256 336.12h72.79v74.7h-72.79z" fill="#e2e2e2"/></g></g></svg>